# xmcd
#
# Track frame offsets:
#	182
#	34660
#	49280
#	72275
#	84635
#	105437
#	119902
#	129850
#	144942
#	186025
#	205160
#	245225
#	264745
#	288097
#	306067
#
# Disc length: 4411
#
# Revision: 1
# Processed by: cddbd v1.5.1PL0 Copyright (c) Steve Scherf et al.
# Submitted via: CDex 1.51
# Normalized: r0:DSETVAR1,TDELIM( - )
#
DISCID=dc11390f
DTITLE=Various Artist - Shades of Blue
DYEAR=1996
DGENRE=Jazz
TTITLE0=Thelonious Monk - Blue Monk
TTITLE1=Dizzy Gillespie - Blues People
TTITLE2=Ella Fitzgerald - Good Morning Heartache
TTITLE3=Sonny Terry and Brownie McGhee - Sittin' On Top of the World
TTITLE4=George Benson - Myna Bird Blues
TTITLE5=Benny Goodman - Why Don't You Do Right
TTITLE6=Charlie Parker - Cool Blues
TTITLE7=Count Basie - Harvard Blues
TTITLE8=Miles Davies - No Blues
TTITLE9=Carmen McRae - Don't Explain
TTITLE10=Gerry Mulligan - Blueport
TTITLE11=Herbie Hancock - 'Round Midnight
TTITLE12=Sarah Vaughan - The Blues
TTITLE13=Art Blakey - Cubano Chant
TTITLE14=Maynard Ferguson - Every Day I Have The Blues
EXTD=YEAR: 1996
EXTT0=
EXTT1=
EXTT2=
EXTT3=
EXTT4=
EXTT5=
EXTT6=
EXTT7=
EXTT8=
EXTT9=
EXTT10=
EXTT11=
EXTT12=
EXTT13=
EXTT14=
PLAYORDER=
